<svg xmlns="http://www.w3.org/2000/svg" viewBox="0 0 150.15 27.14"><defs><style>.cls-1{fill:#fff;}</style></defs><title>Asset 282x</title><g id="Layer_2" data-name="Layer 2"><g id="Layer_1-2" data-name="Layer 1"><path class="cls-1" d="M.54,18.65q.07.43.25,1.13a10.77,10.77,0,0,0,.52,1.51,12.05,12.05,0,0,0,.86,1.66,7.82,7.82,0,0,0,1.28,1.57,7.43,7.43,0,0,0,1.6,1.26,6.83,6.83,0,0,0,1.48.63,5.49,5.49,0,0,0,1.33.22l1.17,0A7.18,7.18,0,0,0,12.17,26a5.56,5.56,0,0,0,1.93-1.46,5.32,5.32,0,0,0,1-1.82,5.88,5.88,0,0,0,.29-1.67,3.63,3.63,0,0,0-.63-2.2,5,5,0,0,0-1.67-1.44,12,12,0,0,0-2.38-1L8,15.68a26.24,26.24,0,0,1-2.74-1,9.06,9.06,0,0,1-2.38-1.44,6.56,6.56,0,0,1-1.67-2.18A7.38,7.38,0,0,1,.54,7.85a6.27,6.27,0,0,1,.65-2.77A7.57,7.57,0,0,1,3,2.72,9.08,9.08,0,0,1,5.74,1.06,9.41,9.41,0,0,1,9.22.43,9,9,0,0,1,11.3.65q.9.22,1.58.45t1.21.45a2.53,2.53,0,0,0,1,.22,1,1,0,0,0,.67-.16A1.94,1.94,0,0,0,16.06,1h.58V7.85h-.47q-.43-1.26-.92-2.48A9.24,9.24,0,0,0,14,3.15a5.8,5.8,0,0,0-1.91-1.6A6.18,6.18,0,0,0,9.18.94a7.45,7.45,0,0,0-2.54.4,5.86,5.86,0,0,0-1.85,1A4.62,4.62,0,0,0,3.64,3.82a3.58,3.58,0,0,0-.4,1.62,3.22,3.22,0,0,0,.67,2.09A5.76,5.76,0,0,0,5.65,8.95a13.33,13.33,0,0,0,2.47,1l2.84.9q1.46.47,2.84,1a9.77,9.77,0,0,1,2.47,1.42A6.84,6.84,0,0,1,18,15.41a6.27,6.27,0,0,1,.67,3A8,8,0,0,1,18,21.78a8.38,8.38,0,0,1-2,2.77,10,10,0,0,1-3.13,1.89,11.17,11.17,0,0,1-4.05.7,11.48,11.48,0,0,1-2.21-.22q-1.1-.22-2.05-.45T2.79,26a4.39,4.39,0,0,0-1.1-.22A1.22,1.22,0,0,0,1,26a1.44,1.44,0,0,0-.4.67H0v-8Z"/><path class="cls-1" d="M37.44,1v.5H34.13V26.14h5.94a7.63,7.63,0,0,0,2.39-.4,6.61,6.61,0,0,0,2.27-1.31A9.23,9.23,0,0,0,46.64,22,12.5,12.5,0,0,0,48,18.5h.47v8.14H25.6v-.5h3.31V1.51H25.6V1Z"/><path class="cls-1" d="M55.57,8.35a14.22,14.22,0,0,1,7.54-7,12.77,12.77,0,0,1,4.72-1A13.9,13.9,0,0,1,77.06,4a13.4,13.4,0,0,1,3.06,4.19,12.82,12.82,0,0,1,1.17,5.56,12.33,12.33,0,0,1-1.1,5.13A14.06,14.06,0,0,1,73,26.08a12.68,12.68,0,0,1-5.13,1.06,13.08,13.08,0,0,1-5.11-1,13.73,13.73,0,0,1-7.27-7,12.27,12.27,0,0,1-1.12-5.22A12.22,12.22,0,0,1,55.57,8.35Zm5.06,11.75A10.92,10.92,0,0,0,62,24a4.91,4.91,0,0,0,2.38,2,9.43,9.43,0,0,0,3.47.58,7.57,7.57,0,0,0,4.18-1,6.06,6.06,0,0,0,2.27-2.74,13.16,13.16,0,0,0,1-4.14q.2-2.39.2-5.2,0-2.52-.16-4.81a12.31,12.31,0,0,0-.92-4A6.25,6.25,0,0,0,72.05,2a7.52,7.52,0,0,0-4.23-1,7.48,7.48,0,0,0-4,1,6.08,6.08,0,0,0-2.3,2.68,13.16,13.16,0,0,0-1,4.1,49.74,49.74,0,0,0-.25,5.22A37.07,37.07,0,0,0,60.62,20.11Z"/><path class="cls-1" d="M96.15,1l6.23,17.93h.07L108.79,1h9v.5h-3.31V26.14h3.31v.5H106v-.5h3.28V1.51h-.07l-8.86,25.13h-.58L90.86,1.51h-.07V26.14H94.1v.5H86.9v-.5h3.31V1.51H86.9V1Z"/><path class="cls-1" d="M124,26.14,134.75,0h1l11.34,26.14h3.1v.5h-12.1v-.5h3.35l-4.18-9.65h-8.64l-4,9.65h3.2v.5H121v-.5ZM128.77,16h8.28L132.8,6.16Z"/></g></g></svg>