<svg xmlns="http://www.w3.org/2000/svg" viewBox="0 0 578.77 562.11"><defs><style>.cls-1{opacity:0.5;}.cls-2,.cls-3{fill:#fff;}.cls-3{font-size:103.91px;font-family:Didot-Bold, Didot;letter-spacing:0.08em;}.cls-4{stroke:#fff;stroke-miterlimit:10;font-weight:700;}.cls-5{font-size:25.71px;font-family:Verdana, Verdana;letter-spacing:0.7em;}.cls-6{letter-spacing:0.64em;}</style></defs><title>Asset 302x</title><g id="Layer_2" data-name="Layer 2"><g id="Layer_1-2" data-name="Layer 1"><g class="cls-1"><path class="cls-2" d="M277.3,420.82h-14l-2.82,3.85H214.64l-9.45-.18v9.28h57.06v13.3H205.19v11.55h36.41v11.2h-20v9.45h20v10.5H205.19v3.5h43.76v2.45H205.19v11.55h4.55V501h4.2v6.3H222v-4.55h3.15v4.55h8.05V501h11.9v6.3H278.7V426.07h-1.4Zm-11.9,65.11v13.3H254.55V486.91l-8.15-8.15,8.15-8.15V455.47H265.4v16.45l7,7Z"/><path class="cls-2" d="M371,277.94a64.31,64.31,0,0,0-16.43-19.65,92,92,0,0,0-23.21-13.38q-12.61-5.07-25.87-9.36a466.67,466.67,0,0,0-8.95-49.9h4.86v-14.7H296c1.24-8.12,2.12-15.6,2.73-22.49h0v-.15c.17-2,.32-3.9.45-5.79a49.23,49.23,0,0,1,16.11,5,54.4,54.4,0,0,1,18,15.08,87.23,87.23,0,0,1,11.69,20.84q4.57,11.52,8.63,23.37H358V142.43h-5.42a18,18,0,0,1-3.22,5.59q-1.52,1.53-6.26,1.53a23.7,23.7,0,0,1-9-2q-4.91-2-11.35-4.23T307.85,139a69.9,69.9,0,0,0-8.36-1.42c.08-1.49.14-3,.2-4.37l.15-.2c0-1.11,0-2.24-.05-3.39,0-.49,0-1,0-1.49h-.07c-.42-16-2.22-34-3.57-39.32h7v-5.6h-6V82.07h11.64a20.76,20.76,0,0,0,1.48,8.47c2.6,6.06,9.38,10.22,16,9a11.39,11.39,0,0,0,8.1-6.25c1.36-3,2-7.61-1.47-9.37-.3-.15-.63.29-.34.49,2.75,1.9,1.79,6.11.48,8.62a10.29,10.29,0,0,1-6.54,5c-4.86,1.29-10-1.26-13-5-3.26-3.95-3.61-9.74-2.86-14.61a29.76,29.76,0,0,1,5.61-12.68,57.48,57.48,0,0,1,4.09-5c.18.45.35.91.52,1.36C322,65,323,67.87,324,70.77a24.72,24.72,0,0,0-3.44,4.3,27.25,27.25,0,0,0-3.36,9.88c-.43,2.85-.4,7,2.81,8.18a6.44,6.44,0,0,0,7.75-3c1.48-2.92.91-6.76.37-9.84a59.45,59.45,0,0,0-1.41-6,50.45,50.45,0,0,1,8.27-6.87c5.24-3.62,10.64-6.85,15.43-11.09a34.92,34.92,0,0,0,10.69-15.87c2.69-9,1.81-19.44-3-27.53a23.58,23.58,0,0,0-9.74-9.15,23.06,23.06,0,0,0-15.87-1.49,40.71,40.71,0,0,0-5.09,1.74,28.89,28.89,0,0,0-7.18,3.34,10.26,10.26,0,0,0-1.47-2.13C314.83,1,308.18.13,302.75,0a40.27,40.27,0,0,0-12.14,1.66c-.42.12-.82.29-1.24.43-.41-.14-.82-.31-1.24-.43A40.27,40.27,0,0,0,276,0c-5.43.12-12.09,1-15.93,5.3a10.27,10.27,0,0,0-1.47,2.13,28.88,28.88,0,0,0-7.18-3.34,40.77,40.77,0,0,0-5.09-1.74,23.06,23.06,0,0,0-15.87,1.49A23.58,23.58,0,0,0,220.73,13c-4.85,8.09-5.74,18.55-3,27.53A34.92,34.92,0,0,0,228.38,56.4c4.79,4.24,10.19,7.46,15.43,11.09a50.45,50.45,0,0,1,8.27,6.87,59.36,59.36,0,0,0-1.41,6c-.54,3.08-1.1,6.92.37,9.84a6.44,6.44,0,0,0,7.74,3c3.21-1.23,3.24-5.34,2.81-8.18a27.25,27.25,0,0,0-3.36-9.88,24.69,24.69,0,0,0-3.44-4.3c1-2.9,2-5.76,3.07-8.61.17-.45.35-.91.52-1.36a57.48,57.48,0,0,1,4.09,5,29.76,29.76,0,0,1,5.61,12.68c.75,4.87.4,10.66-2.86,14.61-3.06,3.71-8.15,6.27-13,5a10.29,10.29,0,0,1-6.54-5c-1.31-2.51-2.28-6.72.48-8.62.29-.2,0-.64-.34-.49-3.46,1.76-2.83,6.41-1.47,9.37a11.39,11.39,0,0,0,8.1,6.25c6.59,1.21,13.37-2.95,16-9a20.76,20.76,0,0,0,1.48-8.47h11.66v1.18h-6v5.6h7c-1.35,5.3-3.14,23.31-3.57,39.32H279c0,.48,0,1,0,1.49,0,1.14,0,2.27-.05,3.39l.15.2c0,1.35.11,2.75.18,4.16a87.68,87.68,0,0,0-49.68,21.11,71.41,71.41,0,0,0-16.94,22.19,59,59,0,0,0-6.1,26.09q0,18.3,5.93,30.49a61.75,61.75,0,0,0,15.75,20.5,85.63,85.63,0,0,0,22.36,13.55q9.73,4.08,19.89,7.34c0,.5,0,1,0,1.5,0,1.71.07,3.44.11,5.16l-1-.34c1.32,26.09,6,65.14,8.46,82.13.64,4.24,2,13.21,2.36,15.44h-4.2v.91l-.78,0a51.62,51.62,0,0,1-12.53-2,64.59,64.59,0,0,1-13.89-5.93A70,70,0,0,1,234,363.65a73.73,73.73,0,0,1-12-14.74,114.5,114.5,0,0,1-8.13-15.58,102.26,102.26,0,0,1-4.91-14.23q-1.7-6.61-2.37-10.68h-5.08v75.21h5.42q1.69-4.74,3.73-6.27t6.77-1.52q3.38,0,10.33,2t15.92,4.23q9,2.2,19.31,4.23a108.15,108.15,0,0,0,16.2,1.92v3.23h-2.89v4.2h3.15v13.13h4.73V525.37a22,22,0,0,0-2.63,10.8c0,5.75,1.89,10.78,4.73,13.6a10.78,10.78,0,0,0-1,4.78c0,3.9,1.82,7.11,4.17,7.56h0c2.35-.45,4.17-3.66,4.17-7.56a10.78,10.78,0,0,0-1-4.78c2.83-2.82,4.73-7.85,4.73-13.6a22,22,0,0,0-2.63-10.8V408.82h4.73V395.7h3.15v-4.2h-2.89v-4.14a97.08,97.08,0,0,0,22.3-5.59A94,94,0,0,0,351.38,364a78.84,78.84,0,0,0,19.14-26.08,75.28,75.28,0,0,0,6.78-31.51Q377.3,289.46,371,277.94ZM285.92,22.6a1.69,1.69,0,0,0,1.64.1,2.89,2.89,0,0,0,.59-.4v8.86c-1.47.84-2.58,2.86-2.87,5.35H275c.09-.16.18-.32.25-.49,1.22-2.77,1-5.65.42-8.54-.54-2.65-1.44-5.58-1-8.31a6.18,6.18,0,0,1,2.6-4.11,9.66,9.66,0,0,1,3.12-1.31h0a15,15,0,0,1,2.52,0c2,.17,4.22.81,5.24,2.67a5,5,0,0,1,.28,4.09c-.28.84-1.22,2.17-2.25,1.6C285.93,21.91,285.58,22.4,285.92,22.6ZM303.46,36c.07.17.16.33.25.49H293.49c-.29-2.49-1.41-4.51-2.87-5.35V22.32a2.88,2.88,0,0,0,.57.38,1.69,1.69,0,0,0,1.64-.1c.34-.2,0-.69-.35-.5-1,.57-2-.76-2.25-1.6a5,5,0,0,1,.28-4.09c1-1.86,3.27-2.5,5.24-2.67a15,15,0,0,1,2.52,0h0a9.66,9.66,0,0,1,3.12,1.31,6.18,6.18,0,0,1,2.6,4.11c.48,2.73-.42,5.66-1,8.31C302.45,30.37,302.25,33.26,303.46,36Zm12.22,27.91a33.34,33.34,0,0,0-6.1,12.43c-.17.74-.31,1.51-.42,2.29H297.25v-.92h6V72h-9.07a23.47,23.47,0,0,0,2.14-6.86l.45,0a5.16,5.16,0,0,0,4.5-3.33,2.61,2.61,0,0,0,1.62.6A2.92,2.92,0,0,0,305.25,61l12.8.05C317.24,62,316.44,62.94,315.69,63.93ZM305.41,56a3,3,0,0,0-2.56-1.73,2.61,2.61,0,0,0-1.62.6,5.16,5.16,0,0,0-4.5-3.33,4.12,4.12,0,0,0-.93.11c-.92-3.64-2.45-6.46-4.29-7.87a7.94,7.94,0,0,0,2-4.54h12.46a9,9,0,0,0,.69.72,18.67,18.67,0,0,0,9.46,3.93,46.52,46.52,0,0,0,1.59,9.28c.25.92.56,1.83.87,2.74Zm-.34-20.76.13.21h-.05ZM325,38.19a17.77,17.77,0,0,1-4.35.74c-1,.08-2,.13-3,.14a34.64,34.64,0,0,1,1.28-7.41A29,29,0,0,1,322,25c.2-.33.41-.67.63-1a15.08,15.08,0,0,1,2.57-2.08c1.88-1.22,4.35-2.18,6.59-1.56,2.72.75,3.66,4.1,3.45,6.58-.24,2.87-2.21,5.45-4.2,7.38A17.14,17.14,0,0,1,325,38.19Zm3.54-.16-.1,0,.09,0Zm-6,54c-4,.53-4.4-3.57-4.05-6.59A23.49,23.49,0,0,1,322,75.21a30.21,30.21,0,0,1,2.41-3q.33,1,.63,2.07a27.27,27.27,0,0,0-2.76,3.81c-.11.19-.2.39-.3.58l-.11.15a16.34,16.34,0,0,0-1.73,3A10.07,10.07,0,0,0,319.3,87a5.73,5.73,0,0,0,4.44,4.78A7.88,7.88,0,0,1,322.48,92Zm4.63-6a8.07,8.07,0,0,1-.94,3.93s-.07.07-.09.11c-1,.7-2.46.27-3.64-.48a4.74,4.74,0,0,1-1.19-1.52,5.42,5.42,0,0,1-.37-2.61c.07-.36.15-.7.22-1a18.09,18.09,0,0,1,1.36-4,22.11,22.11,0,0,1,3-4.73A34.76,34.76,0,0,1,327.11,86ZM343.05,3.51a21.43,21.43,0,0,1,11.78,7.62c6,7.51,7.27,18.2,5.1,27.34-1.52,6.41-5.29,11.87-10,16.39-4.54,4.37-10,7.56-15.14,11.09a52.88,52.88,0,0,0-8.55,7c-.2-.67-.41-1.34-.63-2,3.45-3.48,7.58-6.41,11.39-9.32,5.21-4,10-8.07,13.73-13.49a40.68,40.68,0,0,0,6.93-17.18A30,30,0,0,0,355,13.34a18.64,18.64,0,0,0-9.56-8.71,24,24,0,0,0-7.58-1.78A24.73,24.73,0,0,1,343.05,3.51ZM319.92,12.7a15,15,0,0,1-1,4.55,7.8,7.8,0,0,1-2.1,3.5c-1.51,1.26-2.48-.6-2.65-1.94-.33-2.62,1.27-5.16,3-7a20.56,20.56,0,0,1,2.35-2.16A9.39,9.39,0,0,1,319.92,12.7Zm-60.67-3a20.53,20.53,0,0,1,2.35,2.16c1.7,1.83,3.3,4.37,3,7-.17,1.34-1.14,3.2-2.65,1.94a7.8,7.8,0,0,1-2.1-3.5,15,15,0,0,1-1-4.55A9.39,9.39,0,0,1,259.25,9.66ZM243.94,65.95c-5.18-3.53-10.6-6.71-15.14-11.09-4.7-4.53-8.47-10-10-16.39-2.17-9.14-.87-19.83,5.1-27.34a21.43,21.43,0,0,1,11.78-7.62,24.73,24.73,0,0,1,5.14-.66,24,24,0,0,0-7.58,1.78,18.64,18.64,0,0,0-9.55,8.71,30,30,0,0,0-2.64,17.6A40.69,40.69,0,0,0,228,48.11c3.76,5.42,8.53,9.52,13.73,13.49,3.81,2.91,7.95,5.84,11.39,9.32-.22.67-.43,1.33-.63,2A52.86,52.86,0,0,0,243.94,65.95Zm8.73,24.12s-.07-.07-.09-.11a8.07,8.07,0,0,1-.94-3.93,34.77,34.77,0,0,1,1.63-10.29,22.12,22.12,0,0,1,3,4.73,18.11,18.11,0,0,1,1.36,4c.07.32.15.67.22,1a5.42,5.42,0,0,1-.37,2.61,4.73,4.73,0,0,1-1.19,1.52C255.13,90.34,253.63,90.77,252.67,90.07Zm4.06-14.86a23.5,23.5,0,0,1,3.59,10.21c.35,3,0,7.12-4.05,6.59a7.88,7.88,0,0,1-1.26-.28A5.73,5.73,0,0,0,259.45,87a10.08,10.08,0,0,0-.85-5.16,16.39,16.39,0,0,0-1.73-3l-.11-.15c-.1-.19-.19-.39-.3-.58a27.26,27.26,0,0,0-2.76-3.81q.31-1,.63-2.07A30.2,30.2,0,0,1,256.73,75.21Zm1.6-18.61-.49,1.31c-5-5.13-10.51-9.69-15.54-14.75-6.37-6.41-12.66-14.56-11.8-24.18a10.72,10.72,0,0,1,2.23-6,10.19,10.19,0,0,1,6.42-3.32,13.62,13.62,0,0,1,8.94,1.45,60.61,60.61,0,0,1,7.46,5.6c.07.05.15,0,.1-.11-2.13-2.69-4.6-5.48-7.74-7A15.25,15.25,0,0,0,238,8.51a11.15,11.15,0,0,0-7.31,4.68,13.6,13.6,0,0,0-1.9,7.7c.27,9.59,6.06,17.26,12.61,23.74,5.11,5.06,10.8,9.67,15.78,14.91-1,2.73-2.07,5.46-3,8.22l-.62,1.79-.45-.43a94.43,94.43,0,0,0-7.8-6.54c-5.24-4-10.56-7.88-14.62-13.17a40.33,40.33,0,0,1-8-17.63c-1-6.13-.43-12.89,2.66-18.39a17.64,17.64,0,0,1,10.5-8.12A27.12,27.12,0,0,1,258,8.76a13.45,13.45,0,0,0,1.34,11.07c.77,1.32,2.15,3.14,3.94,2.79A3.63,3.63,0,0,0,266,19.45c.77-4.56-2.65-8.6-6.14-11.17a9,9,0,0,1,2-2.58A16.36,16.36,0,0,1,270,2.07a36.89,36.89,0,0,1,9.67-.57,42,42,0,0,1,7.79,1.31c-.83.35-1.65.72-2.45,1.14a37.12,37.12,0,0,0-5.4,3.79c-.16.13,0,.4.18.27a32.7,32.7,0,0,1,9.47-4.58l.15,0,.15,0A32.69,32.69,0,0,1,299,8c.16.13.34-.15.18-.27A37.12,37.12,0,0,0,293.77,4c-.8-.42-1.62-.79-2.45-1.14a42,42,0,0,1,7.79-1.31,36.89,36.89,0,0,1,9.67.57,16.36,16.36,0,0,1,8.15,3.63,9.05,9.05,0,0,1,2,2.58c-3.49,2.57-6.91,6.61-6.14,11.17a3.63,3.63,0,0,0,2.65,3.17c1.79.36,3.17-1.46,3.94-2.79a13.45,13.45,0,0,0,1.34-11.07,27.12,27.12,0,0,1,22.2-3.49,17.64,17.64,0,0,1,10.5,8.12c3.09,5.5,3.69,12.26,2.66,18.39a40.33,40.33,0,0,1-8,17.63c-4.06,5.29-9.38,9.14-14.62,13.17a94.5,94.5,0,0,0-7.8,6.54l-.45.43q-.3-.9-.62-1.79c-1-2.76-2-5.49-3-8.22,5-5.24,10.67-9.85,15.78-14.91,6.54-6.48,12.34-14.15,12.61-23.74a13.6,13.6,0,0,0-1.9-7.7,11.15,11.15,0,0,0-7.31-4.68,15.25,15.25,0,0,0-9.84,1.12c-3.14,1.52-5.62,4.31-7.74,7,0,.06,0,.16.1.11a60.6,60.6,0,0,1,7.46-5.6,13.62,13.62,0,0,1,8.94-1.45A10.19,10.19,0,0,1,346,13a10.73,10.73,0,0,1,2.23,6c.86,9.62-5.43,17.77-11.8,24.18-5,5.06-10.59,9.62-15.54,14.75l-.49-1.31a46.09,46.09,0,0,1-2.8-12.49,33.25,33.25,0,0,0,3.6.16,21.1,21.1,0,0,0,15.67-7,19.27,19.27,0,0,0,4.59-11.63c.24-3.95-.84-8.23-4.53-10.26-4.34-2.39-8.87.27-11.95,3.41a31.26,31.26,0,0,0-8.92,20.29c-.94,0-1.88-.1-2.82-.21l-.45-.1-.55-.12a17.66,17.66,0,0,1-2.87-1.34,7.51,7.51,0,0,1-4-6.15c-.26-3,1-6.07.76-9,0-.07,0-.15,0-.22.3-4.25-1.44-8-5.82-9.11-3.66-.89-9.07-.41-10.93,3.41l0,.07,0-.07c-1.86-3.82-7.26-4.3-10.93-3.41-4.38,1.07-6.12,4.86-5.82,9.11,0,.07,0,.15,0,.22-.26,3,1,6.06.76,9a7.51,7.51,0,0,1-4,6.15,17.65,17.65,0,0,1-2.87,1.34l-.55.12-.45.1c-.93.11-1.88.18-2.82.21a31.26,31.26,0,0,0-8.92-20.29c-3.08-3.14-7.6-5.8-11.95-3.41-3.69,2-4.77,6.31-4.53,10.26a19.27,19.27,0,0,0,4.59,11.63,21.1,21.1,0,0,0,15.67,7,33.26,33.26,0,0,0,3.6-.16A46.11,46.11,0,0,1,258.33,56.6Zm15.34-21.34-.08.22-.06,0Zm-26-1c-2-1.93-4-4.51-4.2-7.38-.21-2.48.73-5.83,3.45-6.58,2.25-.62,4.71.34,6.59,1.56A15.07,15.07,0,0,1,256.11,24c.22.34.43.68.63,1a29,29,0,0,1,3.14,6.7,34.66,34.66,0,0,1,1.28,7.41c-1,0-2-.06-3-.14a17.77,17.77,0,0,1-4.35-.74A17.14,17.14,0,0,1,247.69,34.27Zm2.63,3.79-.09,0h0Zm10.75,15.14a46.57,46.57,0,0,0,1.59-9.28A18.67,18.67,0,0,0,272.12,40a8,8,0,0,0,.68-.72h12.49a8,8,0,0,0,2,4.54c-1.85,1.41-3.38,4.23-4.29,7.87a4.12,4.12,0,0,0-.93-.11,5.17,5.17,0,0,0-4.5,3.33,2.61,2.61,0,0,0-1.62-.6A3,3,0,0,0,273.36,56l-13.16-.08C260.51,55,260.82,54.13,261.07,53.21Zm20.45,24.53v.92H269.58c-.11-.78-.25-1.55-.42-2.29a33.34,33.34,0,0,0-6.1-12.43c-.75-1-1.55-1.94-2.36-2.87L273.52,61a2.92,2.92,0,0,0,2.41,1.48,2.61,2.61,0,0,0,1.62-.6,5.17,5.17,0,0,0,4.5,3.33l.45,0A23.46,23.46,0,0,0,284.64,72h-9.07v5.69Zm-43.3,126Q232,196,232,184.09a33.71,33.71,0,0,1,3.73-15.25,43.61,43.61,0,0,1,10.84-13.55A55.37,55.37,0,0,1,264,145.48a63.44,63.44,0,0,1,15.58-3.33c.14,2,.29,4,.48,6.17v.15h0c.61,6.89,1.49,14.37,2.73,22.49h-5.45v14.7h4.86c-1.58,6.58-4.91,21.45-7.62,40a122.14,122.14,0,0,1-19.91-8.55A54.19,54.19,0,0,1,238.23,203.74ZM343.42,347.21a50,50,0,0,1-9.32,17.11Q327.5,372.45,316,378a54.27,54.27,0,0,1-15.19,4.53H298.3c.29-1.78,1.52-10,2.33-15.43h0c.16-1.1.32-2.24.48-3.41h0c2.37-17,5.34-41.63,6.57-66-.09-1.32.52-4.26,1-7.39a106.21,106.21,0,0,1,15.71,7,47.49,47.49,0,0,1,15.75,13.55q5.93,8.13,5.93,20.67A55.63,55.63,0,0,1,343.42,347.21Z"/></g><text class="cls-3" transform="translate(61.76 295.51)"><tspan class="cls-4">SLOMA</tspan><tspan class="cls-5"><tspan x="-61.76" y="56.97">REAL ES</tspan><tspan class="cls-6" x="173.12" y="56.97">TA</tspan><tspan x="239.52" y="56.97">TE GROUP</tspan></tspan></text></g></g></svg>