<svg xmlns="http://www.w3.org/2000/svg" viewBox="0 0 18 18"><defs><style>.cls-1{fill:#fff;}.cls-2{fill:#75aadc;}</style></defs><title>Asset 23profile</title><g id="Layer_2" data-name="Layer 2"><g id="Layer_1-2" data-name="Layer 1"><circle class="cls-1" cx="9" cy="9" r="9"/><path class="cls-2" d="M4.54,7c0-.18,0-.36.08-.54a2.86,2.86,0,0,1,1-1.68l.41-.35A.64.64,0,0,1,7,4.45a5.24,5.24,0,0,1,.77,1.07,2.07,2.07,0,0,1,.3.73.86.86,0,0,1-.26.82,4.87,4.87,0,0,1-.56.47.81.81,0,0,0-.31,1.07,3.72,3.72,0,0,0,.62,1,7.47,7.47,0,0,0,1.14,1.2,2,2,0,0,0,.78.43.71.71,0,0,0,.69-.2c.19-.18.38-.37.58-.54a.91.91,0,0,1,1.08-.1,2,2,0,0,1,.39.24c.31.26.62.53.91.81a1.22,1.22,0,0,1,.21.29.58.58,0,0,1-.09.77,5.22,5.22,0,0,1-1,.82,3,3,0,0,1-1.51.4,4.08,4.08,0,0,1-2.11-.66,8.71,8.71,0,0,1-1.91-1.63A10.83,10.83,0,0,1,5.23,9.44a5.37,5.37,0,0,1-.64-1.77c0-.14,0-.27,0-.41Z"/></g></g></svg>