<svg xmlns="http://www.w3.org/2000/svg" viewBox="0 0 289.39 345.46"><defs><style>.cls-1{isolation:isolate;}.cls-2{font-size:51.96px;font-family:Didot-Bold, Didot;letter-spacing:0.08em;}.cls-3{font-weight:700;}.cls-4{font-size:12.86px;font-family:Verdana, Verdana;letter-spacing:0.7em;}.cls-5{letter-spacing:0.64em;}.cls-6{fill:#919191;mix-blend-mode:multiply;}</style></defs><title>Asset 1profile</title><g class="cls-1"><g id="Layer_2" data-name="Layer 2"><g id="Layer_1-2" data-name="Layer 1"><text class="cls-2" transform="translate(30.88 180.88)"><tspan class="cls-3">SLOMA</tspan><tspan class="cls-4"><tspan x="-30.88" y="24.48">REAL ES</tspan><tspan class="cls-5" x="86.56" y="24.48">TA</tspan><tspan x="119.76" y="24.48">TE GROUP</tspan></tspan></text><path class="cls-6" d="M135.74,258.62h-8.6L125.42,261H97.23l-5.81-.11v5.7h35.07v8.18H91.42v7.1H113.8v6.88H101.53v5.81H113.8V301H91.42v2.15h26.89v1.51H91.42v7.1h2.8v-3.87H96.8v3.87h4.95V309h1.94v2.8h4.95v-3.87H116v3.87H136.6V261.85h-.86Zm-7.31,40v8.18h-6.67v-7.58l-5-5,5-5v-9.3h6.67V290l4.3,4.3Z"/><path class="cls-6" d="M193.35,170.81a39.52,39.52,0,0,0-10.1-12.08A56.54,56.54,0,0,0,169,150.51q-7.75-3.12-15.9-5.75a286.83,286.83,0,0,0-5.5-30.67h3v-9h-3.35c.76-5,1.31-9.59,1.68-13.82h0v-.09c.11-1.22.2-2.4.28-3.56a30.26,30.26,0,0,1,9.9,3.06,33.43,33.43,0,0,1,11,9.26,53.61,53.61,0,0,1,7.18,12.81q2.81,7.08,5.31,14.36h2.71V87.53H182A11.09,11.09,0,0,1,180,91q-.94.94-3.85.94a14.57,14.57,0,0,1-5.52-1.25q-3-1.25-7-2.6t-9.16-2.6a43,43,0,0,0-5.14-.87c0-.91.09-1.81.12-2.69l.09-.12c0-.68,0-1.38,0-2.08,0-.3,0-.62,0-.91h0c-.26-9.84-1.36-20.91-2.19-24.17h4.31V51.16H148v-.73h7.15a12.76,12.76,0,0,0,.91,5.21,9.26,9.26,0,0,0,9.81,5.54,7,7,0,0,0,5-3.84c.83-1.81,1.22-4.67-.91-5.76-.18-.09-.38.18-.21.3,1.69,1.17,1.1,3.76.29,5.3a6.33,6.33,0,0,1-4,3.07c-3,.79-6.12-.78-8-3.06s-2.22-6-1.76-9a18.29,18.29,0,0,1,3.45-7.79,35.34,35.34,0,0,1,2.51-3.06l.32.83c.66,1.75,1.3,3.51,1.89,5.29a15.18,15.18,0,0,0-2.12,2.64,16.75,16.75,0,0,0-2.06,6.07c-.27,1.75-.25,4.28,1.72,5a4,4,0,0,0,4.76-1.82c.91-1.8.56-4.16.23-6a36.53,36.53,0,0,0-.87-3.67,31,31,0,0,1,5.08-4.22,97.11,97.11,0,0,0,9.48-6.81,21.46,21.46,0,0,0,6.57-9.75A21.57,21.57,0,0,0,185.35,8a14.49,14.49,0,0,0-6-5.62,14.17,14.17,0,0,0-9.76-.92,25,25,0,0,0-3.13,1.07,17.75,17.75,0,0,0-4.41,2.05,6.3,6.3,0,0,0-.9-1.31C158.81.62,154.72.08,151.38,0a24.75,24.75,0,0,0-7.46,1c-.26.08-.51.18-.76.26-.25-.09-.5-.19-.76-.26a24.75,24.75,0,0,0-7.46-1c-3.34.08-7.43.62-9.79,3.26a6.32,6.32,0,0,0-.9,1.31,17.75,17.75,0,0,0-4.41-2.05,25,25,0,0,0-3.13-1.07,14.17,14.17,0,0,0-9.76.92A14.49,14.49,0,0,0,101,8,21.57,21.57,0,0,0,99.1,24.91a21.46,21.46,0,0,0,6.57,9.75,97.13,97.13,0,0,0,9.48,6.81,31,31,0,0,1,5.08,4.22,36.46,36.46,0,0,0-.87,3.67c-.33,1.89-.68,4.25.23,6a4,4,0,0,0,4.76,1.82c2-.75,2-3.28,1.72-5A16.75,16.75,0,0,0,124,46.13a15.18,15.18,0,0,0-2.12-2.64c.58-1.78,1.23-3.54,1.89-5.29l.32-.83a35.34,35.34,0,0,1,2.51,3.06,18.29,18.29,0,0,1,3.45,7.79c.46,3,.24,6.55-1.76,9s-5,3.85-8,3.06a6.33,6.33,0,0,1-4-3.07c-.8-1.54-1.4-4.13.29-5.3.18-.12,0-.4-.21-.3-2.13,1.08-1.74,3.94-.91,5.76a7,7,0,0,0,5,3.84,9.26,9.26,0,0,0,9.81-5.54,12.76,12.76,0,0,0,.91-5.21h7.17v.73h-3.66v3.44H139c-.83,3.25-1.93,14.33-2.19,24.17h0c0,.3,0,.61,0,.91,0,.7,0,1.4,0,2.08l.09.12c0,.83.07,1.69.11,2.56a53.89,53.89,0,0,0-30.53,13A43.89,43.89,0,0,0,96,111.06a36.25,36.25,0,0,0-3.75,16q0,11.24,3.65,18.74a38,38,0,0,0,9.68,12.6,52.62,52.62,0,0,0,13.74,8.33q6,2.51,12.23,4.51c0,.31,0,.62,0,.92,0,1,0,2.11.07,3.17l-.59-.21c.81,16,3.7,40,5.2,50.48.39,2.61,1.23,8.12,1.45,9.49h-2.58v.56h-.48a31.72,31.72,0,0,1-7.7-1.25,39.7,39.7,0,0,1-8.54-3.65,43,43,0,0,1-9.26-7.29,45.31,45.31,0,0,1-7.39-9.06,70.37,70.37,0,0,1-5-9.58,62.85,62.85,0,0,1-3-8.74q-1-4.06-1.46-6.56H89.14v46.22h3.33a8.33,8.33,0,0,1,2.29-3.85,7.08,7.08,0,0,1,4.16-.94,25.28,25.28,0,0,1,6.35,1.25q4.26,1.25,9.79,2.6t11.87,2.6a66.47,66.47,0,0,0,10,1.18v2h-1.78v2.58H137v8.07H140v71.62a13.55,13.55,0,0,0-1.61,6.64c0,3.53,1.16,6.62,2.9,8.36a6.62,6.62,0,0,0-.65,2.94c0,2.4,1.12,4.37,2.56,4.64h0c1.44-.27,2.56-2.25,2.56-4.64a6.62,6.62,0,0,0-.65-2.94c1.74-1.74,2.9-4.83,2.9-8.36a13.55,13.55,0,0,0-1.61-6.64V251.25h2.9v-8.07h1.94v-2.58h-1.78v-2.54a59.66,59.66,0,0,0,13.71-3.43,57.74,57.74,0,0,0,18.11-10.93,48.46,48.46,0,0,0,11.76-16,46.27,46.27,0,0,0,4.16-19.36Q197.2,177.89,193.35,170.81ZM163.51,56.55c-2.48.33-2.71-2.19-2.49-4a14.44,14.44,0,0,1,2.21-6.27,18.59,18.59,0,0,1,1.48-1.86q.2.64.39,1.27A16.75,16.75,0,0,0,163.4,48c-.07.12-.12.24-.18.36l-.07.09a10,10,0,0,0-1.06,1.83,6.19,6.19,0,0,0-.52,3.17,3.52,3.52,0,0,0,2.73,2.94A4.85,4.85,0,0,1,163.51,56.55Zm2.84-3.68a5,5,0,0,1-.58,2.41l-.06.07a2.12,2.12,0,0,1-2.24-.29,2.91,2.91,0,0,1-.73-.93,3.33,3.33,0,0,1-.23-1.6c0-.22.09-.43.13-.63a11.12,11.12,0,0,1,.84-2.44,13.59,13.59,0,0,1,1.86-2.91A21.36,21.36,0,0,1,166.35,52.87Zm9.8-50.71a13.17,13.17,0,0,1,7.24,4.68c3.67,4.61,4.47,11.19,3.14,16.8a20.87,20.87,0,0,1-6.14,10.08c-2.79,2.69-6.12,4.65-9.31,6.81a32.5,32.5,0,0,0-5.25,4.29c-.13-.41-.25-.82-.39-1.23a65.63,65.63,0,0,1,7-5.73,37.36,37.36,0,0,0,8.44-8.29A25,25,0,0,0,185.14,19,18.44,18.44,0,0,0,183.53,8.2a11.45,11.45,0,0,0-5.87-5.35A14.75,14.75,0,0,0,173,1.75,15.2,15.2,0,0,1,176.15,2.16ZM161.94,7.8a9.21,9.21,0,0,1-.61,2.8A4.79,4.79,0,0,1,160,12.75c-.93.77-1.53-.37-1.63-1.19a5.67,5.67,0,0,1,1.82-4.3,12.64,12.64,0,0,1,1.45-1.33A5.77,5.77,0,0,1,161.94,7.8ZM124.65,5.94a12.62,12.62,0,0,1,1.45,1.33,5.67,5.67,0,0,1,1.82,4.3c-.1.82-.7,2-1.63,1.19A4.8,4.8,0,0,1,125,10.6a9.2,9.2,0,0,1-.61-2.8A5.77,5.77,0,0,1,124.65,5.94Zm-9.41,34.59c-3.18-2.17-6.52-4.13-9.31-6.81A20.87,20.87,0,0,1,99.8,23.64c-1.33-5.61-.54-12.19,3.14-16.8a13.17,13.17,0,0,1,7.24-4.68,15.2,15.2,0,0,1,3.16-.4,14.75,14.75,0,0,0-4.66,1.09A11.45,11.45,0,0,0,102.8,8.2,18.45,18.45,0,0,0,101.18,19a25,25,0,0,0,4.26,10.56,37.37,37.37,0,0,0,8.44,8.29,65.62,65.62,0,0,1,7,5.73c-.13.41-.26.82-.39,1.23A32.49,32.49,0,0,0,115.24,40.53Zm5.37,14.83-.06-.07a5,5,0,0,1-.58-2.41,21.38,21.38,0,0,1,1-6.33,13.6,13.6,0,0,1,1.86,2.91,11.13,11.13,0,0,1,.84,2.44c0,.2.09.41.13.63a3.33,3.33,0,0,1-.23,1.6,2.91,2.91,0,0,1-.73.93A2.11,2.11,0,0,1,120.61,55.36Zm2.49-9.13a14.44,14.44,0,0,1,2.21,6.27c.21,1.85,0,4.38-2.49,4a4.84,4.84,0,0,1-.77-.17,3.52,3.52,0,0,0,2.73-2.94,6.19,6.19,0,0,0-.52-3.17,10.07,10.07,0,0,0-1.06-1.83l-.07-.09c-.06-.12-.12-.24-.18-.36a16.75,16.75,0,0,0-1.7-2.34q.19-.64.39-1.27A18.57,18.57,0,0,1,123.1,46.22Zm15.64,67.87c-1,4-3,13.18-4.68,24.6a75.06,75.06,0,0,1-12.23-5.25,33.3,33.3,0,0,1-10.1-8.22,18.63,18.63,0,0,1-3.85-12.07,20.71,20.71,0,0,1,2.29-9.37,26.8,26.8,0,0,1,6.66-8.33,34,34,0,0,1,10.72-6,39,39,0,0,1,9.57-2c.08,1.23.18,2.49.29,3.79v.09h0c.37,4.24.92,8.83,1.68,13.82h-3.35v9Zm-4.07-69.82v3.5h3.66v.56H131c-.07-.48-.15-1-.26-1.41A20.49,20.49,0,0,0,127,39.29c-.46-.61-1-1.19-1.45-1.77l7.88,0a1.79,1.79,0,0,0,1.48.91,1.6,1.6,0,0,0,1-.37,3.17,3.17,0,0,0,2.77,2l.28,0a14.42,14.42,0,0,0,1.31,4.21Zm4.55-12.52a2.53,2.53,0,0,0-.57-.07,3.17,3.17,0,0,0-2.77,2,1.6,1.6,0,0,0-1-.37,1.85,1.85,0,0,0-1.57,1.06l-8.09,0c.19-.56.38-1.12.54-1.68a28.63,28.63,0,0,0,1-5.71,11.47,11.47,0,0,0,5.81-2.42,4.94,4.94,0,0,0,.42-.44h7.68a4.88,4.88,0,0,0,1.22,2.79A8.82,8.82,0,0,0,139.24,31.76Zm-21.69-10.7A7.69,7.69,0,0,1,115,16.53c-.13-1.53.45-3.58,2.12-4a5.23,5.23,0,0,1,4.05,1,9.25,9.25,0,0,1,1.58,1.28l.38.62A17.8,17.8,0,0,1,125,19.46a21.3,21.3,0,0,1,.79,4.55c-.63,0-1.25,0-1.86-.09a10.92,10.92,0,0,1-2.67-.45A10.54,10.54,0,0,1,117.55,21.06Zm1.62,2.33-.06,0h0Zm14.27-1.59.09-.13,0,.14Zm9.21-9.2c-.17.51-.75,1.33-1.38,1-.21-.12-.42.18-.21.31a1,1,0,0,0,1,.06,1.78,1.78,0,0,0,.36-.24v5.44a4.33,4.33,0,0,0-1.77,3.29h-6.3c.05-.1.11-.2.15-.3a8.47,8.47,0,0,0,.26-5.25c-.33-1.63-.88-3.43-.59-5.11a3.8,3.8,0,0,1,1.6-2.53,5.94,5.94,0,0,1,1.92-.8h0a9.19,9.19,0,0,1,1.55,0,3.88,3.88,0,0,1,3.22,1.64A3.05,3.05,0,0,1,142.63,12.6Zm.54-2.65v0C142,7.6,138.68,7.3,136.43,7.85c-2.69.66-3.76,3-3.58,5.6,0,0,0,.09,0,.14-.16,1.82.63,3.72.47,5.55a4.62,4.62,0,0,1-2.48,3.78,10.85,10.85,0,0,1-1.77.83l-.34.07-.28.06c-.57.07-1.15.11-1.73.13a19.21,19.21,0,0,0-5.48-12.47c-1.89-1.93-4.67-3.56-7.34-2.09-2.26,1.25-2.93,3.88-2.78,6.31A11.84,11.84,0,0,0,114,22.89a13,13,0,0,0,9.63,4.32,20.47,20.47,0,0,0,2.21-.1,28.34,28.34,0,0,1-1.72,7.67l-.3.81c-3-3.15-6.46-6-9.55-9.07-3.92-3.94-7.78-8.95-7.25-14.86A6.59,6.59,0,0,1,108.34,8a6.26,6.26,0,0,1,3.95-2,8.37,8.37,0,0,1,5.49.89,37.24,37.24,0,0,1,4.58,3.44s.09,0,.06-.07a14.58,14.58,0,0,0-4.76-4.3,9.37,9.37,0,0,0-6-.69,6.85,6.85,0,0,0-4.49,2.88A8.36,8.36,0,0,0,106,12.84c.17,5.9,3.73,10.61,7.75,14.59,3.14,3.11,6.64,5.94,9.7,9.16-.64,1.68-1.27,3.36-1.87,5.05l-.38,1.1-.28-.27a58,58,0,0,0-4.79-4c-3.22-2.47-6.49-4.84-9-8.09a24.79,24.79,0,0,1-4.94-10.84,17.47,17.47,0,0,1,1.63-11.3,10.84,10.84,0,0,1,6.46-5A16.67,16.67,0,0,1,123.9,5.38a8.27,8.27,0,0,0,.82,6.81c.47.81,1.32,1.93,2.42,1.71A2.23,2.23,0,0,0,128.78,12c.47-2.8-1.63-5.28-3.77-6.86a5.56,5.56,0,0,1,1.22-1.59,10.05,10.05,0,0,1,5-2.23,22.67,22.67,0,0,1,5.95-.35,25.81,25.81,0,0,1,4.79.81c-.51.21-1,.44-1.51.7a22.82,22.82,0,0,0-3.32,2.33c-.1.08,0,.25.11.17a20.1,20.1,0,0,1,5.82-2.81l.09,0,.09,0a20.1,20.1,0,0,1,5.82,2.81c.1.08.21-.09.11-.17a22.81,22.81,0,0,0-3.32-2.33c-.49-.26-1-.49-1.51-.7a25.8,25.8,0,0,1,4.79-.81,22.67,22.67,0,0,1,5.95.35,10.05,10.05,0,0,1,5,2.23,5.56,5.56,0,0,1,1.22,1.59c-2.14,1.58-4.25,4.06-3.77,6.86a2.23,2.23,0,0,0,1.63,1.95c1.1.22,1.95-.9,2.42-1.71a8.27,8.27,0,0,0,.82-6.81,16.67,16.67,0,0,1,13.64-2.14,10.84,10.84,0,0,1,6.46,5,17.47,17.47,0,0,1,1.63,11.3,24.78,24.78,0,0,1-4.94,10.84c-2.5,3.25-5.77,5.62-9,8.09a58.11,58.11,0,0,0-4.79,4l-.28.27-.38-1.1c-.59-1.7-1.23-3.37-1.87-5.05,3.06-3.22,6.56-6.05,9.7-9.16,4-4,7.58-8.69,7.75-14.59a8.36,8.36,0,0,0-1.17-4.73,6.85,6.85,0,0,0-4.49-2.88,9.37,9.37,0,0,0-6.05.69,14.57,14.57,0,0,0-4.76,4.3s0,.1.06.07a37.24,37.24,0,0,1,4.58-3.44A8.37,8.37,0,0,1,174,6,6.26,6.26,0,0,1,178,8a6.59,6.59,0,0,1,1.37,3.68c.53,5.91-3.34,10.92-7.25,14.86-3.09,3.11-6.51,5.91-9.55,9.07l-.3-.81a28.32,28.32,0,0,1-1.72-7.67,20.46,20.46,0,0,0,2.21.1,13,13,0,0,0,9.63-4.32,11.85,11.85,0,0,0,2.82-7.14c.15-2.43-.52-5.06-2.78-6.31-2.67-1.47-5.45.17-7.34,2.09A19.21,19.21,0,0,0,159.59,24c-.58,0-1.16-.06-1.73-.13l-.28-.06-.34-.07a10.85,10.85,0,0,1-1.77-.83A4.62,4.62,0,0,1,153,19.14c-.16-1.83.63-3.73.47-5.55,0,0,0-.09,0-.13.19-2.61-.89-4.95-3.58-5.6C147.64,7.3,144.32,7.6,143.18,9.94ZM165,23.47a10.92,10.92,0,0,1-2.67.45c-.61,0-1.23.08-1.86.09a21.29,21.29,0,0,1,.79-4.55,17.79,17.79,0,0,1,1.93-4.12l.38-.62a9.26,9.26,0,0,1,1.58-1.28,5.23,5.23,0,0,1,4.05-1c1.67.46,2.25,2.52,2.12,4a7.69,7.69,0,0,1-2.58,4.53A10.54,10.54,0,0,1,165,23.47Zm2.18-.1-.06,0,.06,0ZM152.89,21.8h0l0-.14Zm-9-2.65V13.72a1.77,1.77,0,0,0,.35.23,1,1,0,0,0,1-.06c.21-.13,0-.42-.21-.31-.63.35-1.21-.47-1.38-1a3,3,0,0,1,.17-2.51,3.88,3.88,0,0,1,3.22-1.64,9.19,9.19,0,0,1,1.55,0h0a5.94,5.94,0,0,1,1.92.8,3.8,3.8,0,0,1,1.6,2.53c.29,1.68-.26,3.48-.59,5.11a8.47,8.47,0,0,0,.26,5.25c0,.1.1.2.15.3h-6.28A4.33,4.33,0,0,0,143.93,19.15Zm.54,7.77a4.88,4.88,0,0,0,1.22-2.79h7.66a5.52,5.52,0,0,0,.42.44A11.47,11.47,0,0,0,159.58,27a28.6,28.6,0,0,0,1,5.71c.16.57.34,1.13.54,1.68l-8.08,0a1.85,1.85,0,0,0-1.58-1.06,1.6,1.6,0,0,0-1,.37,3.17,3.17,0,0,0-2.77-2,2.53,2.53,0,0,0-.57.07A8.82,8.82,0,0,0,144.47,26.93Zm1.62,17.35a14.42,14.42,0,0,0,1.31-4.21l.28,0a3.17,3.17,0,0,0,2.77-2,1.6,1.6,0,0,0,1,.37,1.79,1.79,0,0,0,1.48-.91l7.86,0c-.5.57-1,1.16-1.45,1.77a20.49,20.49,0,0,0-3.75,7.64c-.11.46-.19.93-.26,1.41H148v-.56h3.66v-3.5Zm30.29,169.11a30.74,30.74,0,0,1-5.73,10.52,32.12,32.12,0,0,1-11.14,8.43,33.36,33.36,0,0,1-9.34,2.78h-1.53c.18-1.1.94-6.15,1.43-9.48h0c.1-.67.2-1.37.3-2.09h0c1.46-10.44,3.28-25.59,4-40.58a32.52,32.52,0,0,1,.63-4.54,65.29,65.29,0,0,1,9.65,4.28A29.19,29.19,0,0,1,174.4,191q3.64,5,3.65,12.7A34.18,34.18,0,0,1,176.38,213.39Z"/></g></g></g></svg>