<svg xmlns="http://www.w3.org/2000/svg" viewBox="0 0 8.91 9.55"><title>Asset 12profile</title><g id="Layer_2" data-name="Layer 2"><g id="Layer_1-2" data-name="Layer 1"><path d="M0,2.75c0-.18,0-.36.08-.54a2.86,2.86,0,0,1,1-1.68L1.52.18a.64.64,0,0,1,.93.05A5.24,5.24,0,0,1,3.23,1.3a2.07,2.07,0,0,1,.3.73.86.86,0,0,1-.26.82,4.87,4.87,0,0,1-.56.47A.81.81,0,0,0,2.4,4.39a3.72,3.72,0,0,0,.62,1,7.47,7.47,0,0,0,1.14,1.2,2,2,0,0,0,.78.43.71.71,0,0,0,.69-.2c.19-.18.38-.37.58-.54a.91.91,0,0,1,1.08-.1,2,2,0,0,1,.39.24c.31.26.62.53.91.81a1.22,1.22,0,0,1,.21.29.58.58,0,0,1-.09.77,5.22,5.22,0,0,1-1,.82,3,3,0,0,1-1.51.4,4.08,4.08,0,0,1-2.11-.66A8.71,8.71,0,0,1,2.2,7.26,10.83,10.83,0,0,1,.69,5.21,5.37,5.37,0,0,1,0,3.44C0,3.31,0,3.17,0,3Z"/></g></g></svg>