<svg xmlns="http://www.w3.org/2000/svg" viewBox="0 0 16.04 16"><defs><style>.cls-1{fill-rule:evenodd;}</style></defs><title>Asset 18facebook</title><g id="Layer_2" data-name="Layer 2"><g id="Layer_1-2" data-name="Layer 1"><path class="cls-1" d="M9.21,16c-.07-2,0-4.08,0-6.12a14.89,14.89,0,0,1,1.63,0c.13-.62.15-1.34.24-2-.8,0-1.23,0-1.83,0,0-.67-.16-1.25.07-1.63S10.35,6,11,5.94c.08-.61,0-1.37,0-2-1.54,0-2.86-.12-3.63.59S6.75,6.4,6.68,7.8H5.54c-.08.61,0,1.37,0,2H6.72V16A8,8,0,0,1,0,7.73,7.83,7.83,0,0,1,2.26,2.51,7.64,7.64,0,0,1,7.37,0,8,8,0,0,1,16,8a8.43,8.43,0,0,1-2.23,5.65A7.79,7.79,0,0,1,9.21,16"/></g></g></svg>