<svg xmlns="http://www.w3.org/2000/svg" viewBox="0 0 16 16"><title>Asset 17instagram</title><g id="Layer_2" data-name="Layer 2"><g id="Layer_1-2" data-name="Layer 1"><path d="M8,1.44c2.14,0,2.39,0,3.23.06a4.39,4.39,0,0,1,1.48.28,2.46,2.46,0,0,1,.92.6,2.47,2.47,0,0,1,.6.92,4.39,4.39,0,0,1,.27,1.49c0,.84,0,1.1,0,3.23s0,2.39-.06,3.23a4.39,4.39,0,0,1-.28,1.49,2.64,2.64,0,0,1-1.52,1.51,4.39,4.39,0,0,1-1.49.27c-.84,0-1.1,0-3.23,0s-2.39,0-3.23-.06a4.39,4.39,0,0,1-1.48-.28,2.46,2.46,0,0,1-.92-.6,2.47,2.47,0,0,1-.6-.92,4.39,4.39,0,0,1-.27-1.49c0-.84,0-1.1,0-3.23s0-2.39.06-3.23a4.39,4.39,0,0,1,.28-1.49,2.47,2.47,0,0,1,.6-.92,2.46,2.46,0,0,1,.92-.6,4.39,4.39,0,0,1,1.49-.27c.84,0,1.1,0,3.23,0M8,0C5.85,0,5.58,0,4.73,0A5.89,5.89,0,0,0,2.78.41a3.91,3.91,0,0,0-1.42.92A3.91,3.91,0,0,0,.44,2.74,5.87,5.87,0,0,0,.06,4.68C0,5.54,0,5.81,0,8s0,2.45,0,3.3a5.87,5.87,0,0,0,.37,1.94,3.91,3.91,0,0,0,.92,1.42,3.91,3.91,0,0,0,1.41.93,5.89,5.89,0,0,0,1.94.38C5.54,16,5.81,16,8,16s2.44,0,3.3,0a5.89,5.89,0,0,0,1.94-.37,4.09,4.09,0,0,0,2.35-2.33,5.87,5.87,0,0,0,.38-1.94c0-.85.05-1.13.06-3.3s0-2.45,0-3.3a5.87,5.87,0,0,0-.37-1.94,3.91,3.91,0,0,0-.92-1.42A3.91,3.91,0,0,0,13.26.44,5.89,5.89,0,0,0,11.32.06C10.47,0,10.2,0,8,0"/><path d="M8,3.89A4.11,4.11,0,1,0,12.11,8,4.11,4.11,0,0,0,8,3.89m0,6.77A2.67,2.67,0,1,1,10.67,8,2.67,2.67,0,0,1,8,10.67"/><path d="M13.23,3.73a1,1,0,1,1-1-1,1,1,0,0,1,1,1"/></g></g></svg>