<svg xmlns="http://www.w3.org/2000/svg" viewBox="0 0 16.23 16.24"><title>Asset 19twitter</title><g id="Layer_2" data-name="Layer 2"><g id="Layer_1-2" data-name="Layer 1"><path d="M8.13,0a8.12,8.12,0,1,0,8.11,8.12A8.09,8.09,0,0,0,8.13,0M12,5.91l-.38.39a.73.73,0,0,0-.22.52,4.7,4.7,0,0,1-3.6,4.44,4.8,4.8,0,0,1-3.36-.5.18.18,0,0,1-.11-.12A3.59,3.59,0,0,0,6.59,10l-.46-.18a1.71,1.71,0,0,1-.87-.77c-.1-.2-.08-.23.14-.24a2.56,2.56,0,0,0,.37,0,5.24,5.24,0,0,1-.6-.39,1.78,1.78,0,0,1-.58-1.1c0-.12,0-.14.13-.11l.37.11s.07,0,.08,0,0-.06,0-.09L5,7a1.7,1.7,0,0,1-.18-1.89,9.88,9.88,0,0,0,.83.77A4.67,4.67,0,0,0,8,6.87c.12,0,.11,0,.1-.12a1.66,1.66,0,0,1,0-.65,1.6,1.6,0,0,1,2.42-1,.78.78,0,0,0,.89.08L12,5a1.78,1.78,0,0,1-.37.6c-.05.07-.17.14-.13.21s.17,0,.26,0a1.39,1.39,0,0,1,.41-.11.4.4,0,0,1-.14.23"/></g></g></svg>